<?xml version="1.0" standalone="no"?><!DOCTYPE svg PUBLIC "-//W3C//DTD SVG 1.1//EN" "http://www.w3.org/Graphics/SVG/1.1/DTD/svg11.dtd"><svg t="1578749233983" class="icon" viewBox="0 0 1024 1024" version="1.1" xmlns="http://www.w3.org/2000/svg" p-id="7655" width="16" height="16" xmlns:xlink="http://www.w3.org/1999/xlink"><defs><style type="text/css"></style></defs><path d="M544 576L544 768a32 32 0 1 1-64 0l0-192-160 0a32 32 0 1 1 0-64l384 0a32 32 0 0 1 0 64l-160 0z m96-320a32 32 0 0 1-32 32l-192 0a32 32 0 0 1 0-64l192 0a32 32 0 0 1 32 32z m-32 0l0 288a32 32 0 0 1-32 32l-128 0a32 32 0 0 1-32-32l0-288a32 32 0 0 1 32-32l128 0a32 32 0 0 1 32 32z m-64 256l0-224-64 0 0 224 64 0z" p-id="7656"></path></svg>