<?xml version="1.0" standalone="no"?><!DOCTYPE svg PUBLIC "-//W3C//DTD SVG 1.1//EN" "http://www.w3.org/Graphics/SVG/1.1/DTD/svg11.dtd"><svg t="1634202013587" class="icon" viewBox="0 0 1024 1024" version="1.1" xmlns="http://www.w3.org/2000/svg" p-id="4528" xmlns:xlink="http://www.w3.org/1999/xlink" width="16" height="16"><defs><style type="text/css"></style></defs><path d="M1024 266.666667v576a53.393333 53.393333 0 0 1-53.333333 53.333333H96a53.393333 53.393333 0 0 1-53.333333-53.333333V138.666667a53.393333 53.393333 0 0 1 53.333333-53.333334h296.08a52.986667 52.986667 0 0 1 37.713333 15.62l109.253334 109.253334a10.573333 10.573333 0 0 0 7.54 3.126666H970.666667a53.393333 53.393333 0 0 1 53.333333 53.333334z m-313.333333 246.153333a21.333333 21.333333 0 0 0-17.22-14.52L596 484.146667l-43.533333-88.253334a21.333333 21.333333 0 0 0-38.266667 0L470.666667 484.146667l-97.4 14.153333A21.333333 21.333333 0 0 0 361.426667 534.666667l70.473333 68.666666-16.666667 97.006667a21.333333 21.333333 0 0 0 30.953334 22.486667L533.333333 677.086667l87.113334 45.793333a21.333333 21.333333 0 0 0 30.953333-22.486667l-16.666667-97.006666 70.473334-68.666667a21.333333 21.333333 0 0 0 5.46-21.9z" fill="#ffffff" p-id="4529" data-spm-anchor-id="a313x.7781069.0.i12" class="selected"></path></svg>