<?xml version="1.0" standalone="no"?><!DOCTYPE svg PUBLIC "-//W3C//DTD SVG 1.1//EN" "http://www.w3.org/Graphics/SVG/1.1/DTD/svg11.dtd"><svg t="1598497729711" class="icon" viewBox="0 0 1024 1024" version="1.1" xmlns="http://www.w3.org/2000/svg" p-id="1451" xmlns:xlink="http://www.w3.org/1999/xlink" width="32" height="32"><defs><style type="text/css"></style></defs><path d="M104.456 266.512l-6.792-6.784 75.24-75.232 6.784 6.784z" fill="#2B72D9" p-id="1452"></path><path d="M107.2 360h-18.4c-11.2 0-20.8-9.6-20.8-20.8v-62.4c0-11.2 9.6-20.8 20.8-20.8h18.4c11.2 0 20.8 9.6 20.8 20.8v62.4c0 11.2-9.6 20.8-20.8 20.8z" fill="#459DF5" p-id="1453"></path><path d="M850.224 191.6l6.784-6.792 75.24 75.24-6.792 6.784z" fill="#2B72D9" p-id="1454"></path><path d="M923.2 360h18.4c11.2 0 20.8-9.6 20.8-20.8v-62.4c0-11.2-9.6-20.8-20.8-20.8h-18.4c-11.2 0-20.8 9.6-20.8 20.8v62.4c-0.8 11.2 8.8 20.8 20.8 20.8z" fill="#459DF5" p-id="1455"></path><path d="M48 873.6a464 121.6 0 1 0 928 0 464 121.6 0 1 0-928 0Z" fill="#DAE9FF" p-id="1456"></path><path d="M326.4 904h-53.6c-16 0-28.8-12.8-28.8-28.8V780.8c0-16 12.8-28.8 28.8-28.8h53.6c16 0 28.8 12.8 28.8 28.8v94.4c0 16-13.6 28.8-28.8 28.8z" fill="#459DF5" p-id="1457"></path><path d="M252 895.2c4 4 8 6.4 13.6 7.2V752.8c-4.8 1.6-9.6 4-13.6 7.2v135.2zM279.2 752h13.6v152h-13.6zM306.4 752H320v152h-13.6zM332.8 903.2c4.8-1.6 9.6-4 13.6-7.2V760.8c-4-4-8-6.4-13.6-7.2v149.6z" fill="#2B72D9" p-id="1458"></path><path d="M244 816.8h111.2v33.6H244z" fill="#2B72D9" p-id="1459"></path><path d="M743.2 904h-53.6c-16 0-28.8-12.8-28.8-28.8V780.8c0-16 12.8-28.8 28.8-28.8h53.6c16 0 28.8 12.8 28.8 28.8v94.4c0 16-12.8 28.8-28.8 28.8z" fill="#459DF5" p-id="1460"></path><path d="M669.6 895.2c4 4 8 6.4 13.6 7.2V752.8c-4.8 1.6-9.6 4-13.6 7.2v135.2zM696 752h13.6v152H696zM723.2 752h13.6v152h-13.6zM750.4 903.2c4.8-1.6 9.6-4 13.6-7.2V760.8c-4-4-8-6.4-13.6-7.2v149.6z" fill="#2B72D9" p-id="1461"></path><path d="M660.8 816.8h111.2v33.6H660.8z" fill="#2B72D9" p-id="1462"></path><path d="M770.4 818.4H254.4c-52.8 0-96-43.2-96-96V182.4c0-52.8 43.2-96 96-96h516c52.8 0 96 43.2 96 96v540c0 52.8-44 96-96 96z" fill="#459DF5" p-id="1463"></path><path d="M677.6 595.2H346.4c-52.8 0-96-43.2-96-96V284c0-52.8 43.2-96 96-96h331.2c52.8 0 96 43.2 96 96v215.2c0 52.8-43.2 96-96 96z" fill="#2B72D9" p-id="1464"></path><path d="M676 578.4h-328c-52.8 0-96-43.2-96-96V268.8c0-52.8 43.2-96 96-96h328c52.8 0 96 43.2 96 96v212.8c0 53.6-43.2 96.8-96 96.8z" fill="#BDDEFF" p-id="1465"></path><path d="M252 395.2l222.4-222.4h-52L252 344zM689.6 174.4L299.2 564.8c14.4 8.8 30.4 13.6 48.8 13.6h19.2L744 200.8c-14.4-13.6-33.6-24-54.4-26.4zM581.6 578.4l190.4-190.4v-71.2L511.2 578.4z" fill="#E1F3FF" p-id="1466"></path><path d="M302.4 761.6h-48c-12.8 0-22.4-10.4-22.4-22.4 0-12.8 10.4-22.4 22.4-22.4h48c12.8 0 22.4 10.4 22.4 22.4 0 12-9.6 22.4-22.4 22.4z" fill="#2B72D9" p-id="1467"></path><path d="M303.2 752h-48.8c-12.8 0-22.4-10.4-22.4-22.4 0-12.8 10.4-22.4 22.4-22.4h48.8c12.8 0 22.4 10.4 22.4 22.4 0.8 12-9.6 22.4-22.4 22.4z" fill="#BDDEFF" p-id="1468"></path><path d="M765.6 761.6h-48c-12.8 0-22.4-10.4-22.4-22.4 0-12.8 10.4-22.4 22.4-22.4h48c12.8 0 22.4 10.4 22.4 22.4 0 12-9.6 22.4-22.4 22.4z" fill="#2B72D9" p-id="1469"></path><path d="M766.4 752h-48.8c-12.8 0-22.4-10.4-22.4-22.4 0-12.8 10.4-22.4 22.4-22.4h48.8c12.8 0 22.4 10.4 22.4 22.4 0.8 12-9.6 22.4-22.4 22.4zM660 647.2h-296c-4.8 0-8-4-8-8 0-4.8 4-8 8-8h296.8c4.8 0 8 4 8 8s-4 8-8.8 8zM660 680h-296c-4.8 0-8-4-8-8 0-4.8 4-8 8-8h296.8c4.8 0 8 4 8 8s-4 8-8.8 8z" fill="#BDDEFF" p-id="1470"></path></svg>