<?xml version="1.0" standalone="no"?><!DOCTYPE svg PUBLIC "-//W3C//DTD SVG 1.1//EN" "http://www.w3.org/Graphics/SVG/1.1/DTD/svg11.dtd"><svg t="1598497747762" class="icon" viewBox="0 0 1024 1024" version="1.1" xmlns="http://www.w3.org/2000/svg" p-id="1779" xmlns:xlink="http://www.w3.org/1999/xlink" width="32" height="32"><defs><style type="text/css"></style></defs><path d="M11.202234 894.034069a500.790617 129.951634 0 1 0 1001.581234 0 500.790617 129.951634 0 1 0-1001.581234 0Z" fill="#ECF3FF" p-id="1780"></path><path d="M114.817537 84.056074m17.157219 0l760.050488 0q17.157219 0 17.157219 17.157218l0 754.502988q0 17.157219-17.157219 17.157219l-760.050488 0q-17.157219 0-17.157219-17.157219l0-754.502988q0-17.157219 17.157219-17.157218Z" fill="#0C538E" p-id="1781"></path><path d="M114.817537 0m17.157219 0l760.050488 0q17.157219 0 17.157219 17.157219l0 803.057916q0 17.157219-17.157219 17.157219l-760.050488 0q-17.157219 0-17.157219-17.157219l0-803.057916q0-17.157219 17.157219-17.157219Z" fill="#3390FF" p-id="1782"></path><path d="M414.697124 155.544485m5.390226 0l377.801955 0q5.390226 0 5.390226 5.390226l0 83.998883q0 5.390226-5.390226 5.390226l-377.801955 0q-5.390226 0-5.390226-5.390226l0-83.998883q0-5.390226 5.390226-5.390226Z" fill="#DAE9FF" p-id="1783"></path><path d="M408.263167 144.292209m5.390226 0l379.946607 0q5.390226 0 5.390226 5.390226l0 85.328568q0 5.390226-5.390226 5.390226l-379.946607 0q-5.390226 0-5.390226-5.390226l0-85.328568q0-5.390226 5.390226-5.390226Z" fill="#FFFFFF" p-id="1784"></path><path d="M414.697124 376.929796m5.390226 0l377.801955 0q5.390226 0 5.390226 5.390226l0 83.998883q0 5.390226-5.390226 5.390227l-377.801955 0q-5.390226 0-5.390226-5.390227l0-83.998883q0-5.390226 5.390226-5.390226Z" fill="#DAE9FF" p-id="1785"></path><path d="M408.263167 365.663223m5.390226 0l374.584976 0q5.390226 0 5.390226 5.390226l0 83.998883q0 5.390226-5.390226 5.390226l-374.584976 0q-5.390226 0-5.390226-5.390226l0-83.998883q0-5.390226 5.390226-5.390226Z" fill="#FFFFFF" p-id="1786"></path><path d="M414.697124 598.30081m5.390226 0l377.801955 0q5.390226 0 5.390226 5.390226l0 83.998883q0 5.390226-5.390226 5.390226l-377.801955 0q-5.390226 0-5.390226-5.390226l0-83.998883q0-5.390226 5.390226-5.390226Z" fill="#DAE9FF" p-id="1787"></path><path d="M408.263167 587.048534m5.390226 0l374.584976 0q5.390226 0 5.390226 5.390226l0 83.998883q0 5.390226-5.390226 5.390226l-374.584976 0q-5.390226 0-5.390226-5.390226l0-83.998883q0-5.390226 5.390226-5.390226Z" fill="#FFFFFF" p-id="1788"></path><path d="M222.207428 155.544485m4.460877 0l81.582575 0q4.460877 0 4.460876 4.460877l0 85.857581q0 4.460877-4.460876 4.460877l-81.582575 0q-4.460877 0-4.460877-4.460877l0-85.857581q0-4.460877 4.460877-4.460877Z" fill="#DAE9FF" p-id="1789"></path><path d="M220.706171 144.292209m4.475175 0l82.054398 0q4.475175 0 4.475175 4.475174l0 87.158671q0 4.475175-4.475175 4.475175l-82.054398 0q-4.475175 0-4.475175-4.475175l0-87.158671q0-4.475175 4.475175-4.475174Z" fill="#FFFFFF" p-id="1790"></path><path d="M222.207428 376.929796m4.460877 0l81.582575 0q4.460877 0 4.460876 4.460877l0 85.857582q0 4.460877-4.460876 4.460877l-81.582575 0q-4.460877 0-4.460877-4.460877l0-85.857582q0-4.460877 4.460877-4.460877Z" fill="#DAE9FF" p-id="1791"></path><path d="M220.706171 365.663223m4.417984 0l80.910584 0q4.417984 0 4.417984 4.417983l0 85.943368q0 4.417984-4.417984 4.417984l-80.910584 0q-4.417984 0-4.417984-4.417984l0-85.943368q0-4.417984 4.417984-4.417983Z" fill="#FFFFFF" p-id="1792"></path><path d="M222.207428 598.30081m4.460877 0l81.582575 0q4.460877 0 4.460876 4.460877l0 85.857581q0 4.460877-4.460876 4.460877l-81.582575 0q-4.460877 0-4.460877-4.460877l0-85.857581q0-4.460877 4.460877-4.460877Z" fill="#DAE9FF" p-id="1793"></path><path d="M220.706171 587.048534m4.417984 0l80.910584 0q4.417984 0 4.417984 4.417984l0 85.943368q0 4.417984-4.417984 4.417983l-80.910584 0q-4.417984 0-4.417984-4.417983l0-85.943368q0-4.417984 4.417984-4.417984Z" fill="#FFFFFF" p-id="1794"></path></svg>